<svg xmlns="http://www.w3.org/2000/svg" xmlns:xlink="http://www.w3.org/1999/xlink" width="500" zoomAndPan="magnify" viewBox="0 0 375 374.999991" height="500" preserveAspectRatio="xMidYMid meet" version="1.0"><defs><clipPath id="b492c55323"><path d="M 168 112 L 355.523438 112 L 355.523438 322.058594 L 168 322.058594 Z M 168 112 " clip-rule="nonzero"/></clipPath><clipPath id="c11c02c471"><path d="M 19.4375 52.628906 L 207 52.628906 L 207 263 L 19.4375 263 Z M 19.4375 52.628906 " clip-rule="nonzero"/></clipPath><clipPath id="22fdd80b80"><path d="M 36.335938 89.328125 L 187.050781 89.328125 L 187.050781 240.042969 L 36.335938 240.042969 Z M 36.335938 89.328125 " clip-rule="nonzero"/></clipPath><clipPath id="364b911427"><path d="M 61.535156 92.792969 L 162.761719 92.792969 L 162.761719 200.765625 L 61.535156 200.765625 Z M 61.535156 92.792969 " clip-rule="nonzero"/></clipPath><clipPath id="383e48d7a7"><path d="M 208.445312 150.683594 L 326.542969 150.683594 L 326.542969 268.777344 L 208.445312 268.777344 Z M 208.445312 150.683594 " clip-rule="nonzero"/></clipPath><clipPath id="4715d4cfaf"><path d="M 234 157 L 313 157 L 313 262.863281 L 234 262.863281 Z M 234 157 " clip-rule="nonzero"/></clipPath><clipPath id="3ad547b5cf"><path d="M 269 147.019531 L 301 147.019531 L 301 201 L 269 201 Z M 269 147.019531 " clip-rule="nonzero"/></clipPath></defs><g clip-path="url(#b492c55323)"><path fill="#000000" d="M 261.945312 112.042969 C 210.265625 112.042969 168.371094 153.9375 168.371094 205.621094 C 168.371094 206 168.375 206.375 168.375 206.753906 L 168.371094 316.863281 C 168.371094 321.230469 173.433594 323.640625 176.824219 320.890625 L 217.40625 287.9375 C 230.652344 295.121094 245.824219 299.199219 261.945312 299.199219 C 313.625 299.199219 355.523438 257.300781 355.523438 205.621094 C 355.523438 153.9375 313.625 112.042969 261.945312 112.042969 " fill-opacity="1" fill-rule="nonzero"/></g><g clip-path="url(#c11c02c471)"><path fill="#ffffff" d="M 206.582031 147.664062 C 206.585938 147.285156 206.589844 146.910156 206.589844 146.53125 C 206.589844 94.851562 164.695312 52.953125 113.011719 52.953125 C 61.328125 52.953125 19.4375 94.851562 19.4375 146.53125 C 19.4375 198.210938 61.328125 240.105469 113.011719 240.105469 C 129.136719 240.105469 144.308594 236.027344 157.550781 228.847656 L 198.132812 261.800781 C 201.519531 264.550781 206.589844 262.140625 206.589844 257.769531 L 206.582031 147.664062 " fill-opacity="1" fill-rule="nonzero"/></g><path fill="#000000" d="M 117.296875 212.425781 L 108.726562 212.425781 C 105.980469 212.425781 103.746094 210.199219 103.746094 207.445312 L 103.746094 202.773438 C 103.746094 200.027344 105.980469 197.796875 108.726562 197.796875 L 117.296875 197.796875 C 120.046875 197.796875 122.277344 200.027344 122.277344 202.773438 L 122.277344 207.445312 C 122.277344 210.199219 120.046875 212.425781 117.296875 212.425781 " fill-opacity="1" fill-rule="nonzero"/><path fill="#000000" d="M 119.046875 223.578125 L 106.980469 223.578125 C 105.195312 223.578125 103.746094 222.128906 103.746094 220.347656 L 103.746094 220.28125 C 103.746094 218.496094 105.195312 217.050781 106.980469 217.050781 L 119.046875 217.050781 C 120.828125 217.050781 122.277344 218.496094 122.277344 220.28125 L 122.277344 220.347656 C 122.277344 222.128906 120.828125 223.578125 119.046875 223.578125 " fill-opacity="1" fill-rule="nonzero"/><path fill="#000000" d="M 146.183594 158.089844 L 146.183594 168.484375 C 146.183594 186.582031 131.511719 201.253906 113.410156 201.253906 L 112.746094 201.253906 C 94.574219 201.253906 79.839844 186.523438 79.839844 168.347656 L 79.839844 158.089844 C 79.839844 156.335938 78.417969 154.910156 76.664062 154.910156 L 76.597656 154.910156 C 74.84375 154.910156 73.421875 156.335938 73.421875 158.089844 L 73.421875 168.609375 C 73.421875 190.1875 90.910156 207.675781 112.484375 207.675781 L 113.277344 207.675781 C 134.996094 207.675781 152.605469 190.066406 152.605469 168.347656 L 152.605469 158.089844 C 152.605469 156.335938 151.183594 154.910156 149.429688 154.910156 L 149.363281 154.910156 C 147.605469 154.910156 146.183594 156.335938 146.183594 158.089844 " fill-opacity="1" fill-rule="nonzero"/><path fill="#000000" d="M 107.660156 202.886719 L 107.660156 239.957031 C 109.433594 240.054688 111.214844 240.105469 113.011719 240.105469 C 114.808594 240.105469 116.59375 240.054688 118.363281 239.957031 L 118.363281 202.886719 L 107.660156 202.886719 " fill-opacity="1" fill-rule="nonzero"/><path fill="#000000" d="M 131.492188 102.496094 L 131.492188 132.421875 C 131.492188 134.316406 129.957031 135.851562 128.0625 135.851562 L 127.992188 135.851562 C 126.101562 135.851562 124.5625 134.3125 124.5625 132.421875 L 124.5625 97.339844 C 124.5625 96.683594 124.171875 96.089844 123.570312 95.832031 C 121.933594 95.136719 120.210938 94.601562 118.429688 94.246094 C 117.414062 94.046875 116.472656 94.824219 116.472656 95.851562 C 116.472656 103.632812 116.476562 132.421875 116.476562 132.421875 C 116.476562 134.316406 114.9375 135.851562 113.046875 135.851562 L 112.976562 135.851562 C 111.085938 135.851562 109.546875 134.316406 109.546875 132.421875 C 109.546875 132.421875 109.550781 103.632812 109.550781 95.851562 C 109.550781 94.824219 108.613281 94.046875 107.597656 94.246094 C 105.8125 94.601562 104.089844 95.136719 102.457031 95.832031 C 101.851562 96.089844 101.457031 96.683594 101.457031 97.339844 L 101.457031 132.421875 C 101.457031 134.316406 99.925781 135.851562 98.035156 135.851562 L 97.964844 135.851562 C 96.066406 135.851562 94.535156 134.3125 94.535156 132.421875 L 94.535156 102.496094 C 94.535156 101.960938 93.882812 101.707031 93.519531 102.09375 C 89.128906 106.796875 86.441406 113.109375 86.441406 120.050781 L 86.441406 166.644531 C 86.441406 181.171875 98.214844 192.949219 112.746094 192.949219 L 113.277344 192.949219 C 127.804688 192.949219 139.582031 181.171875 139.582031 166.644531 L 139.582031 120.050781 C 139.582031 113.109375 136.894531 106.796875 132.503906 102.09375 C 132.144531 101.707031 131.492188 101.960938 131.492188 102.496094 " fill-opacity="1" fill-rule="nonzero"/><path fill="#ffffff" d="M 272.757812 217.050781 C 272.757812 211.082031 267.917969 206.242188 261.945312 206.242188 C 255.976562 206.242188 251.136719 211.082031 251.136719 217.050781 C 251.136719 223.023438 255.976562 227.863281 261.945312 227.863281 C 267.917969 227.863281 272.757812 223.023438 272.757812 217.050781 " fill-opacity="1" fill-rule="nonzero"/><path fill="#ffffff" d="M 307.433594 217.050781 C 307.433594 211.082031 302.59375 206.242188 296.625 206.242188 C 290.65625 206.242188 285.816406 211.082031 285.816406 217.050781 C 285.816406 223.023438 290.65625 227.863281 296.625 227.863281 C 302.59375 227.863281 307.433594 223.023438 307.433594 217.050781 " fill-opacity="1" fill-rule="nonzero"/><path fill="#ffffff" d="M 238.074219 217.050781 C 238.074219 211.082031 233.234375 206.242188 227.265625 206.242188 C 221.292969 206.242188 216.453125 211.082031 216.453125 217.050781 C 216.453125 223.023438 221.292969 227.863281 227.265625 227.863281 C 233.234375 227.863281 238.074219 223.023438 238.074219 217.050781 " fill-opacity="1" fill-rule="nonzero"/><g clip-path="url(#22fdd80b80)"><path fill="#ffffff" d="M 187.050781 164.683594 C 187.050781 165.917969 187.019531 167.152344 186.957031 168.382812 C 186.898438 169.613281 186.808594 170.84375 186.6875 172.070312 C 186.566406 173.300781 186.414062 174.523438 186.234375 175.742188 C 186.050781 176.960938 185.84375 178.175781 185.601562 179.386719 C 185.359375 180.597656 185.089844 181.800781 184.789062 182.996094 C 184.492188 184.191406 184.164062 185.378906 183.804688 186.558594 C 183.445312 187.742188 183.058594 188.910156 182.644531 190.070312 C 182.230469 191.234375 181.785156 192.382812 181.3125 193.523438 C 180.839844 194.664062 180.339844 195.789062 179.8125 196.90625 C 179.285156 198.019531 178.734375 199.121094 178.152344 200.207031 C 177.570312 201.296875 176.960938 202.367188 176.328125 203.425781 C 175.695312 204.484375 175.035156 205.527344 174.347656 206.550781 C 173.664062 207.578125 172.953125 208.585938 172.21875 209.574219 C 171.484375 210.566406 170.726562 211.539062 169.945312 212.492188 C 169.160156 213.445312 168.355469 214.378906 167.527344 215.292969 C 166.699219 216.207031 165.851562 217.097656 164.976562 217.96875 C 164.105469 218.84375 163.214844 219.691406 162.300781 220.519531 C 161.386719 221.347656 160.453125 222.152344 159.5 222.9375 C 158.546875 223.71875 157.574219 224.476562 156.582031 225.210938 C 155.59375 225.945312 154.585938 226.65625 153.558594 227.339844 C 152.535156 228.027344 151.492188 228.6875 150.433594 229.320312 C 149.375 229.953125 148.304688 230.5625 147.214844 231.144531 C 146.128906 231.726562 145.027344 232.277344 143.910156 232.804688 C 142.796875 233.332031 141.671875 233.832031 140.53125 234.304688 C 139.390625 234.777344 138.242188 235.222656 137.078125 235.636719 C 135.917969 236.050781 134.746094 236.4375 133.566406 236.796875 C 132.386719 237.15625 131.199219 237.484375 130.003906 237.78125 C 128.808594 238.082031 127.605469 238.351562 126.394531 238.59375 C 125.183594 238.835938 123.96875 239.042969 122.75 239.226562 C 121.53125 239.40625 120.308594 239.558594 119.078125 239.679688 C 117.851562 239.800781 116.621094 239.890625 115.390625 239.949219 C 114.160156 240.011719 112.925781 240.042969 111.691406 240.042969 C 110.460938 240.042969 109.226562 240.011719 107.996094 239.949219 C 106.765625 239.890625 105.535156 239.800781 104.308594 239.679688 C 103.078125 239.558594 101.855469 239.40625 100.636719 239.226562 C 99.417969 239.042969 98.203125 238.835938 96.992188 238.59375 C 95.78125 238.351562 94.578125 238.082031 93.382812 237.78125 C 92.1875 237.484375 91 237.15625 89.820312 236.796875 C 88.636719 236.4375 87.46875 236.050781 86.304688 235.636719 C 85.144531 235.222656 83.996094 234.777344 82.855469 234.304688 C 81.714844 233.832031 80.589844 233.332031 79.472656 232.804688 C 78.359375 232.277344 77.257812 231.726562 76.171875 231.144531 C 75.082031 230.5625 74.011719 229.953125 72.953125 229.320312 C 71.894531 228.6875 70.851562 228.027344 69.828125 227.339844 C 68.800781 226.65625 67.792969 225.945312 66.804688 225.210938 C 65.8125 224.476562 64.839844 223.71875 63.886719 222.9375 C 62.933594 222.152344 62 221.347656 61.085938 220.519531 C 60.171875 219.691406 59.28125 218.84375 58.410156 217.96875 C 57.535156 217.097656 56.6875 216.207031 55.859375 215.292969 C 55.03125 214.378906 54.226562 213.445312 53.441406 212.492188 C 52.660156 211.539062 51.902344 210.566406 51.167969 209.574219 C 50.433594 208.585938 49.722656 207.578125 49.035156 206.550781 C 48.351562 205.527344 47.691406 204.484375 47.058594 203.425781 C 46.425781 202.367188 45.816406 201.296875 45.234375 200.207031 C 44.652344 199.121094 44.097656 198.019531 43.574219 196.902344 C 43.046875 195.789062 42.546875 194.664062 42.074219 193.523438 C 41.601562 192.382812 41.15625 191.234375 40.742188 190.070312 C 40.328125 188.910156 39.941406 187.742188 39.582031 186.558594 C 39.222656 185.378906 38.894531 184.191406 38.59375 182.996094 C 38.296875 181.800781 38.027344 180.597656 37.785156 179.386719 C 37.542969 178.175781 37.332031 176.960938 37.152344 175.742188 C 36.972656 174.523438 36.820312 173.300781 36.699219 172.070312 C 36.578125 170.84375 36.488281 169.613281 36.429688 168.382812 C 36.367188 167.152344 36.335938 165.917969 36.335938 164.683594 C 36.335938 163.453125 36.367188 162.21875 36.429688 160.988281 C 36.488281 159.757812 36.578125 158.527344 36.699219 157.300781 C 36.820312 156.070312 36.972656 154.847656 37.152344 153.628906 C 37.332031 152.410156 37.542969 151.195312 37.785156 149.984375 C 38.027344 148.773438 38.296875 147.570312 38.59375 146.375 C 38.894531 145.179688 39.222656 143.992188 39.582031 142.8125 C 39.941406 141.628906 40.328125 140.460938 40.742188 139.296875 C 41.15625 138.136719 41.601562 136.988281 42.074219 135.847656 C 42.546875 134.707031 43.046875 133.582031 43.574219 132.464844 C 44.097656 131.351562 44.652344 130.25 45.234375 129.164062 C 45.816406 128.074219 46.425781 127.003906 47.058594 125.945312 C 47.691406 124.886719 48.351562 123.84375 49.035156 122.820312 C 49.722656 121.792969 50.433594 120.785156 51.167969 119.796875 C 51.902344 118.804688 52.660156 117.832031 53.441406 116.878906 C 54.226562 115.925781 55.03125 114.992188 55.859375 114.078125 C 56.6875 113.164062 57.535156 112.273438 58.410156 111.402344 C 59.28125 110.527344 60.171875 109.679688 61.085938 108.851562 C 62 108.023438 62.933594 107.21875 63.886719 106.433594 C 64.839844 105.652344 65.8125 104.894531 66.804688 104.160156 C 67.792969 103.425781 68.800781 102.714844 69.828125 102.03125 C 70.851562 101.34375 71.894531 100.683594 72.953125 100.050781 C 74.011719 99.417969 75.082031 98.808594 76.171875 98.226562 C 77.257812 97.644531 78.359375 97.089844 79.472656 96.566406 C 80.589844 96.039062 81.714844 95.539062 82.855469 95.066406 C 83.996094 94.59375 85.144531 94.148438 86.304688 93.734375 C 87.46875 93.320312 88.636719 92.933594 89.820312 92.574219 C 91 92.214844 92.1875 91.886719 93.382812 91.585938 C 94.578125 91.289062 95.78125 91.019531 96.992188 90.777344 C 98.203125 90.535156 99.417969 90.324219 100.636719 90.144531 C 101.855469 89.964844 103.078125 89.8125 104.308594 89.691406 C 105.535156 89.570312 106.765625 89.480469 107.996094 89.421875 C 109.226562 89.359375 110.460938 89.328125 111.691406 89.328125 C 112.925781 89.328125 114.160156 89.359375 115.390625 89.421875 C 116.621094 89.480469 117.851562 89.570312 119.078125 89.691406 C 120.308594 89.8125 121.53125 89.964844 122.75 90.144531 C 123.96875 90.324219 125.183594 90.535156 126.394531 90.777344 C 127.605469 91.019531 128.808594 91.289062 130.003906 91.585938 C 131.199219 91.886719 132.386719 92.214844 133.566406 92.574219 C 134.75 92.933594 135.917969 93.320312 137.078125 93.734375 C 138.242188 94.148438 139.390625 94.59375 140.53125 95.066406 C 141.671875 95.539062 142.796875 96.039062 143.910156 96.566406 C 145.027344 97.089844 146.128906 97.644531 147.214844 98.226562 C 148.304688 98.808594 149.375 99.417969 150.433594 100.050781 C 151.492188 100.683594 152.535156 101.34375 153.558594 102.03125 C 154.585938 102.714844 155.59375 103.425781 156.582031 104.160156 C 157.574219 104.894531 158.546875 105.652344 159.5 106.433594 C 160.453125 107.21875 161.386719 108.023438 162.300781 108.851562 C 163.214844 109.679688 164.105469 110.527344 164.976562 111.402344 C 165.851562 112.273438 166.699219 113.164062 167.527344 114.078125 C 168.355469 114.992188 169.160156 115.925781 169.945312 116.878906 C 170.726562 117.832031 171.484375 118.804688 172.21875 119.796875 C 172.953125 120.785156 173.664062 121.792969 174.347656 122.820312 C 175.035156 123.84375 175.695312 124.886719 176.328125 125.945312 C 176.960938 127.003906 177.570312 128.074219 178.152344 129.164062 C 178.734375 130.25 179.285156 131.351562 179.8125 132.464844 C 180.339844 133.582031 180.839844 134.707031 181.3125 135.847656 C 181.785156 136.988281 182.230469 138.136719 182.644531 139.296875 C 183.058594 140.460938 183.445312 141.628906 183.804688 142.8125 C 184.164062 143.992188 184.492188 145.179688 184.789062 146.375 C 185.089844 147.570312 185.359375 148.773438 185.601562 149.984375 C 185.84375 151.195312 186.050781 152.410156 186.234375 153.628906 C 186.414062 154.847656 186.566406 156.070312 186.6875 157.300781 C 186.808594 158.527344 186.898438 159.757812 186.957031 160.988281 C 187.019531 162.21875 187.050781 163.453125 187.050781 164.683594 Z M 187.050781 164.683594 " fill-opacity="1" fill-rule="nonzero"/></g><g clip-path="url(#364b911427)"><path fill="#000000" d="M 116.039062 196.910156 L 116.039062 96.648438 C 116.039062 94.519531 114.296875 92.792969 112.148438 92.792969 C 110 92.792969 108.257812 94.519531 108.257812 96.648438 L 108.257812 196.910156 C 108.257812 199.039062 110 200.765625 112.148438 200.765625 C 114.296875 200.765625 116.039062 199.039062 116.039062 196.910156 Z M 131.605469 177.628906 L 131.605469 115.929688 C 131.605469 113.800781 129.863281 112.074219 127.714844 112.074219 C 125.566406 112.074219 123.824219 113.800781 123.824219 115.929688 L 123.824219 177.628906 C 123.824219 179.757812 125.566406 181.484375 127.714844 181.484375 C 129.863281 181.484375 131.605469 179.757812 131.605469 177.628906 Z M 100.476562 177.628906 L 100.476562 115.929688 C 100.476562 113.800781 98.730469 112.074219 96.582031 112.074219 C 94.4375 112.074219 92.691406 113.800781 92.691406 115.929688 L 92.691406 177.628906 C 92.691406 179.757812 94.4375 181.484375 96.582031 181.484375 C 98.730469 181.484375 100.476562 179.757812 100.476562 177.628906 Z M 147.171875 166.058594 L 147.171875 127.496094 C 147.171875 125.367188 145.429688 123.640625 143.28125 123.640625 C 141.132812 123.640625 139.390625 125.367188 139.390625 127.496094 L 139.390625 166.058594 C 139.390625 168.1875 141.132812 169.914062 143.28125 169.914062 C 145.429688 169.914062 147.171875 168.1875 147.171875 166.058594 Z M 84.910156 166.058594 L 84.910156 127.496094 C 84.910156 125.367188 83.167969 123.640625 81.019531 123.640625 C 78.871094 123.640625 77.128906 125.367188 77.128906 127.496094 L 77.128906 166.058594 C 77.128906 168.1875 78.871094 169.914062 81.019531 169.914062 C 83.167969 169.914062 84.910156 168.1875 84.910156 166.058594 Z M 69.34375 158.347656 L 69.34375 135.210938 C 69.34375 133.082031 67.601562 131.355469 65.453125 131.355469 C 63.304688 131.355469 61.5625 133.082031 61.5625 135.210938 L 61.5625 158.347656 C 61.5625 160.476562 63.304688 162.203125 65.453125 162.203125 C 67.601562 162.203125 69.34375 160.476562 69.34375 158.347656 Z M 162.738281 158.347656 L 162.738281 135.210938 C 162.738281 133.082031 160.992188 131.355469 158.84375 131.355469 C 156.699219 131.355469 154.953125 133.082031 154.953125 135.210938 L 154.953125 158.347656 C 154.953125 160.476562 156.699219 162.203125 158.84375 162.203125 C 160.992188 162.203125 162.738281 160.476562 162.738281 158.347656 Z M 162.738281 158.347656 " fill-opacity="1" fill-rule="evenodd"/></g><g clip-path="url(#383e48d7a7)"><path fill="#000000" d="M 326.277344 209.597656 C 326.277344 211.527344 326.183594 213.453125 325.992188 215.371094 C 325.804688 217.292969 325.523438 219.199219 325.144531 221.089844 C 324.769531 222.984375 324.300781 224.855469 323.742188 226.699219 C 323.179688 228.546875 322.53125 230.359375 321.792969 232.144531 C 321.054688 233.925781 320.230469 235.667969 319.320312 237.371094 C 318.410156 239.070312 317.421875 240.726562 316.347656 242.328125 C 315.277344 243.933594 314.128906 245.480469 312.90625 246.972656 C 311.679688 248.464844 310.386719 249.894531 309.023438 251.257812 C 307.65625 252.621094 306.230469 253.917969 304.738281 255.140625 C 303.246094 256.363281 301.699219 257.511719 300.09375 258.585938 C 298.488281 259.65625 296.835938 260.648438 295.132812 261.558594 C 293.433594 262.464844 291.691406 263.289062 289.90625 264.027344 C 288.125 264.765625 286.3125 265.417969 284.464844 265.976562 C 282.617188 266.535156 280.75 267.003906 278.855469 267.382812 C 276.964844 267.757812 275.058594 268.039062 273.136719 268.230469 C 271.214844 268.417969 269.292969 268.511719 267.363281 268.511719 C 265.433594 268.511719 263.507812 268.417969 261.585938 268.230469 C 259.667969 268.039062 257.761719 267.757812 255.867188 267.382812 C 253.976562 267.003906 252.105469 266.535156 250.257812 265.976562 C 248.414062 265.417969 246.597656 264.765625 244.816406 264.027344 C 243.035156 263.289062 241.292969 262.464844 239.589844 261.558594 C 237.886719 260.648438 236.234375 259.65625 234.628906 258.585938 C 233.027344 257.511719 231.476562 256.363281 229.984375 255.140625 C 228.496094 253.917969 227.066406 252.621094 225.703125 251.257812 C 224.339844 249.894531 223.042969 248.464844 221.820312 246.972656 C 220.59375 245.480469 219.449219 243.933594 218.375 242.328125 C 217.304688 240.726562 216.3125 239.070312 215.402344 237.371094 C 214.492188 235.667969 213.667969 233.925781 212.929688 232.144531 C 212.191406 230.359375 211.542969 228.546875 210.984375 226.699219 C 210.421875 224.855469 209.953125 222.984375 209.578125 221.089844 C 209.203125 219.199219 208.917969 217.292969 208.730469 215.371094 C 208.539062 213.453125 208.445312 211.527344 208.445312 209.597656 C 208.445312 207.667969 208.539062 205.742188 208.730469 203.824219 C 208.917969 201.902344 209.203125 199.996094 209.578125 198.105469 C 209.953125 196.210938 210.421875 194.34375 210.984375 192.496094 C 211.542969 190.648438 212.191406 188.835938 212.929688 187.050781 C 213.667969 185.269531 214.492188 183.527344 215.402344 181.824219 C 216.3125 180.125 217.304688 178.46875 218.375 176.867188 C 219.449219 175.261719 220.59375 173.714844 221.820312 172.222656 C 223.042969 170.730469 224.339844 169.300781 225.703125 167.9375 C 227.066406 166.574219 228.496094 165.28125 229.984375 164.054688 C 231.476562 162.832031 233.027344 161.683594 234.628906 160.609375 C 236.234375 159.539062 237.886719 158.546875 239.589844 157.636719 C 241.292969 156.730469 243.035156 155.90625 244.816406 155.167969 C 246.597656 154.429688 248.414062 153.777344 250.257812 153.21875 C 252.105469 152.660156 253.976562 152.191406 255.867188 151.8125 C 257.761719 151.4375 259.667969 151.15625 261.585938 150.964844 C 263.507812 150.777344 265.433594 150.683594 267.363281 150.683594 C 269.292969 150.683594 271.214844 150.777344 273.136719 150.964844 C 275.058594 151.15625 276.964844 151.4375 278.855469 151.8125 C 280.75 152.191406 282.617188 152.660156 284.464844 153.21875 C 286.3125 153.777344 288.125 154.429688 289.90625 155.167969 C 291.691406 155.90625 293.433594 156.730469 295.136719 157.636719 C 296.835938 158.546875 298.488281 159.539062 300.09375 160.609375 C 301.699219 161.683594 303.246094 162.832031 304.738281 164.054688 C 306.230469 165.28125 307.65625 166.574219 309.023438 167.9375 C 310.386719 169.300781 311.679688 170.730469 312.90625 172.222656 C 314.128906 173.714844 315.277344 175.261719 316.347656 176.867188 C 317.421875 178.46875 318.410156 180.125 319.320312 181.824219 C 320.230469 183.527344 321.054688 185.269531 321.792969 187.050781 C 322.53125 188.835938 323.179688 190.648438 323.742188 192.496094 C 324.300781 194.34375 324.769531 196.210938 325.144531 198.105469 C 325.523438 199.996094 325.804688 201.902344 325.992188 203.824219 C 326.183594 205.742188 326.277344 207.667969 326.277344 209.597656 Z M 326.277344 209.597656 " fill-opacity="1" fill-rule="nonzero"/></g><path fill="#000000" d="M 300.910156 203.589844 L 272.84375 203.664062 C 268.96875 203.664062 266.265625 206.296875 266.265625 210.167969 C 266.265625 214.042969 268.96875 216.671875 272.84375 216.671875 L 291.316406 216.746094 C 291.316406 216.746094 294.402344 216.382812 294.402344 218.941406 C 294.402344 219.90625 293.105469 221.132812 292.136719 221.132812 C 292.136719 221.132812 276.347656 220.402344 275.03125 245.253906 C 274.980469 246.222656 273.808594 247.445312 272.839844 247.445312 C 271.871094 247.445312 270.648438 246.222656 270.648438 245.253906 C 270.648438 234.691406 275.546875 224.417969 280.707031 221.316406 C 277.511719 221.316406 274.707031 221.132812 272.84375 221.132812 C 269.335938 221.132812 267.796875 219.960938 267.796875 219.964844 C 267.285156 220.773438 265.824219 224.421875 258.367188 224.421875 C 250.035156 224.421875 247.769531 216.132812 247.769531 213.824219 L 247.769531 196.210938 L 248.285156 196.136719 C 248.285156 193.289062 249.984375 190.847656 252.425781 189.75 L 252.085938 213.09375 C 252.085938 216.96875 254.9375 220.402344 258.8125 220.402344 C 261.460938 220.402344 263.242188 219.207031 264.441406 217.042969 C 262.832031 215.195312 262.066406 213.066406 262.066406 210.429688 C 262.066406 207.320312 263.179688 204.132812 265.316406 202.203125 L 265.464844 192.703125 L 265.824219 192.628906 C 265.824219 189.78125 267.527344 187.339844 269.964844 186.242188 L 269.773438 196.136719 L 269.699219 199.71875 C 270.804688 199.328125 271.679688 199.207031 272.917969 199.207031 L 283.003906 199.277344 L 283.003906 189.046875 L 283.367188 189.117188 L 283.367188 157.542969 C 283.367188 154.699219 285.070312 152.257812 287.507812 151.160156 L 287.386719 199.082031 L 300.179688 199.082031 L 300.910156 199.644531 C 304.144531 199.644531 306.953125 206.660156 306.953125 206.660156 L 306.960938 206.714844 C 306.105469 205.242188 304.304688 203.589844 300.910156 203.589844 Z M 300.910156 203.589844 " fill-opacity="1" fill-rule="nonzero"/><path fill="#ffffff" d="M 265.824219 202.375 C 263.691406 204.300781 262.316406 207.0625 262.316406 210.167969 C 262.316406 212.8125 263.324219 215.195312 264.929688 217.042969 C 263.734375 219.207031 261.457031 220.695312 258.808594 220.695312 C 254.9375 220.695312 251.792969 217.550781 251.792969 213.675781 L 251.792969 192.628906 C 251.792969 191.597656 252.027344 190.632812 252.425781 189.75 C 253.523438 187.3125 255.964844 185.609375 258.808594 185.609375 C 262.683594 185.609375 265.824219 188.753906 265.824219 192.628906 Z M 265.824219 202.375 " fill-opacity="1" fill-rule="nonzero"/><g clip-path="url(#4715d4cfaf)"><path fill="#ffffff" d="M 234.25 164.558594 C 234.25 160.6875 237.394531 157.542969 241.269531 157.542969 C 245.140625 157.542969 248.285156 160.6875 248.285156 164.558594 L 248.285156 213.675781 C 248.285156 215.984375 249.046875 218.105469 250.3125 219.828125 C 250.40625 219.957031 250.527344 220.066406 250.625 220.1875 C 250.988281 220.640625 251.359375 221.082031 251.789062 221.46875 C 251.90625 221.5625 252.015625 221.664062 252.140625 221.757812 C 252.558594 222.105469 252.992188 222.421875 253.460938 222.699219 C 253.695312 222.835938 253.925781 222.960938 254.167969 223.078125 C 254.660156 223.320312 255.167969 223.519531 255.695312 223.683594 C 255.929688 223.757812 256.152344 223.84375 256.394531 223.902344 C 257.175781 224.082031 257.976562 224.203125 258.808594 224.203125 C 259.636719 224.203125 260.425781 224.074219 261.199219 223.890625 C 261.464844 223.828125 261.71875 223.742188 261.980469 223.660156 C 262.460938 223.503906 262.925781 223.3125 263.371094 223.09375 C 263.65625 222.953125 263.941406 222.828125 264.210938 222.660156 C 264.789062 222.308594 265.328125 221.910156 265.824219 221.460938 C 266.535156 220.816406 267.171875 220.105469 267.683594 219.292969 L 267.675781 219.285156 C 268.375 219.6875 269.335938 220.695312 272.84375 220.695312 L 281.742188 220.695312 C 275.398438 225.484375 271.089844 234.691406 271.089844 245.253906 C 271.089844 246.222656 271.875 247.007812 272.84375 247.007812 C 273.8125 247.007812 274.597656 246.222656 274.597656 245.253906 C 274.597656 231.714844 282.269531 220.695312 291.699219 220.695312 L 292.140625 220.695312 C 293.105469 220.695312 293.894531 219.90625 293.894531 218.941406 C 293.894531 217.972656 293.105469 217.1875 292.140625 217.1875 L 272.84375 217.1875 C 268.96875 217.1875 265.824219 214.042969 265.824219 210.167969 C 265.824219 206.296875 268.96875 203.152344 272.84375 203.152344 L 300.910156 203.152344 C 304.304688 203.152344 306.105469 205.242188 306.960938 206.714844 C 307.402344 207.472656 307.609375 208.078125 307.621094 208.117188 L 311.433594 220.695312 C 311.796875 221.871094 313.113281 227.257812 312.875 228.378906 C 312.875 245.253906 296.402344 262.792969 276.351562 262.792969 C 253.417969 262.792969 234.25 244.375 234.25 220.695312 C 234.277344 220.71875 234.25 164.558594 234.25 164.558594 Z M 234.25 164.558594 " fill-opacity="1" fill-rule="nonzero"/></g><g clip-path="url(#3ad547b5cf)"><path fill="#ffffff" d="M 283.367188 199.644531 L 272.84375 199.644531 C 271.609375 199.644531 270.441406 199.898438 269.335938 200.289062 L 269.335938 189.117188 C 269.335938 188.089844 269.570312 187.121094 269.964844 186.242188 C 271.0625 183.804688 273.507812 182.101562 276.351562 182.101562 C 280.222656 182.101562 283.367188 185.246094 283.367188 189.117188 Z M 286.875 199.644531 L 286.875 154.035156 C 286.875 153.007812 287.109375 152.039062 287.507812 151.160156 C 288.605469 148.71875 291.046875 147.019531 293.894531 147.019531 C 297.765625 147.019531 300.910156 150.164062 300.910156 154.035156 L 300.910156 199.644531 Z M 286.875 199.644531 " fill-opacity="1" fill-rule="nonzero"/></g></svg>